<mxfile host="65bd71144e">
    <diagram id="KNlxMW4XbzF_efwCfC3s" name="Page-1">
        <mxGraphModel dx="413" dy="376" grid="1" gridSize="10" guides="1" tooltips="1" connect="1" arrows="1" fold="1" page="1" pageScale="1" pageWidth="850" pageHeight="1100" math="0" shadow="0">
            <root>
                <mxCell id="0"/>
                <mxCell id="1" parent="0"/>
                <mxCell id="21" value="&lt;span style=&quot;color: rgb(0 , 0 , 0) ; font-family: &amp;#34;helvetica&amp;#34; ; font-size: 11px ; font-style: normal ; font-weight: 400 ; letter-spacing: normal ; text-align: center ; text-indent: 0px ; text-transform: none ; word-spacing: 0px ; background-color: rgb(248 , 249 , 250) ; display: inline ; float: none&quot;&gt;&lt;br&gt;&lt;/span&gt;" style="text;whiteSpace=wrap;html=1;" parent="1" vertex="1">
                    <mxGeometry x="100" y="60" width="310" height="50" as="geometry"/>
                </mxCell>
                <mxCell id="61" value="" style="group" vertex="1" connectable="0" parent="1">
                    <mxGeometry x="140" y="165" width="360" height="385" as="geometry"/>
                </mxCell>
                <mxCell id="32" value="" style="rounded=0;whiteSpace=wrap;html=1;fontSize=11;" vertex="1" parent="61">
                    <mxGeometry y="60" width="330" height="40" as="geometry"/>
                </mxCell>
                <mxCell id="33" value="&lt;font style=&quot;font-size: 11px&quot;&gt;Kloppen bij de buren&lt;/font&gt;" style="rounded=0;whiteSpace=wrap;html=1;" vertex="1" parent="61">
                    <mxGeometry width="330" height="30" as="geometry"/>
                </mxCell>
                <mxCell id="39" value="" style="group" vertex="1" connectable="0" parent="61">
                    <mxGeometry y="50" width="360" height="290" as="geometry"/>
                </mxCell>
                <mxCell id="41" value="" style="rounded=0;whiteSpace=wrap;html=1;fontSize=11;" vertex="1" parent="39">
                    <mxGeometry y="50" width="330" height="30" as="geometry"/>
                </mxCell>
                <mxCell id="42" value="" style="verticalLabelPosition=bottom;verticalAlign=top;html=1;shape=mxgraph.basic.rect;fillColor2=none;strokeWidth=1;size=20;indent=5;fillColor=none;opacity=80;" vertex="1" parent="39">
                    <mxGeometry y="50" width="330" height="30" as="geometry"/>
                </mxCell>
                <mxCell id="43" value="" style="line;strokeWidth=1;direction=south;html=1;fillColor=none;opacity=80;" vertex="1" parent="39">
                    <mxGeometry x="148.5" y="50" width="11" height="30" as="geometry"/>
                </mxCell>
                <mxCell id="46" value="JA" style="text;html=1;resizable=0;autosize=1;align=center;verticalAlign=middle;points=[];fillColor=none;strokeColor=none;rounded=0;fontSize=11;opacity=80;" vertex="1" parent="39">
                    <mxGeometry x="16" y="20" width="30" height="20" as="geometry"/>
                </mxCell>
                <mxCell id="47" value="Nee" style="text;html=1;resizable=0;autosize=1;align=center;verticalAlign=middle;points=[];fillColor=none;strokeColor=none;rounded=0;fontSize=11;opacity=80;" vertex="1" parent="39">
                    <mxGeometry x="264" y="20" width="40" height="20" as="geometry"/>
                </mxCell>
                <mxCell id="48" value="melk toevoegen" style="text;html=1;resizable=0;autosize=1;align=center;verticalAlign=middle;points=[];fillColor=none;strokeColor=none;rounded=0;fontSize=11;opacity=80;" vertex="1" parent="39">
                    <mxGeometry x="22" y="55" width="90" height="20" as="geometry"/>
                </mxCell>
                <mxCell id="53" value="&lt;font style=&quot;font-size: 11px&quot;&gt;Melk vragen&lt;/font&gt;" style="rounded=0;whiteSpace=wrap;html=1;" vertex="1" parent="39">
                    <mxGeometry y="-20" width="330" height="30" as="geometry"/>
                </mxCell>
                <mxCell id="54" value="" style="endArrow=none;html=1;fontSize=11;exitX=0;exitY=0;exitDx=0;exitDy=0;" edge="1" parent="39" source="32">
                    <mxGeometry width="50" height="50" relative="1" as="geometry">
                        <mxPoint y="49" as="sourcePoint"/>
                        <mxPoint x="330" y="10" as="targetPoint"/>
                        <Array as="points">
                            <mxPoint x="160" y="49"/>
                        </Array>
                    </mxGeometry>
                </mxCell>
                <mxCell id="34" value="" style="group" vertex="1" connectable="0" parent="39">
                    <mxGeometry y="140" width="370" height="120" as="geometry"/>
                </mxCell>
                <mxCell id="36" value="&lt;font style=&quot;font-size: 11px&quot;&gt;1 theelepel koffie toevoegen&lt;br&gt;&lt;/font&gt;" style="rounded=0;whiteSpace=wrap;html=1;" vertex="1" parent="34">
                    <mxGeometry y="30" width="330" height="30" as="geometry"/>
                </mxCell>
                <mxCell id="62" value="" style="group" vertex="1" connectable="0" parent="34">
                    <mxGeometry y="60" width="330" height="60" as="geometry"/>
                </mxCell>
                <mxCell id="37" value="Water toevoegen" style="rounded=0;whiteSpace=wrap;html=1;" vertex="1" parent="62">
                    <mxGeometry width="330" height="30" as="geometry"/>
                </mxCell>
                <mxCell id="40" value="" style="rounded=0;whiteSpace=wrap;html=1;fontSize=11;" vertex="1" parent="34">
                    <mxGeometry width="330" height="30" as="geometry"/>
                </mxCell>
                <mxCell id="52" value="Naar huis" style="text;html=1;resizable=0;autosize=1;align=center;verticalAlign=middle;points=[];fillColor=none;strokeColor=none;rounded=0;fontSize=11;" vertex="1" parent="34">
                    <mxGeometry x="135" y="5" width="60" height="20" as="geometry"/>
                </mxCell>
                <mxCell id="63" value="" style="shape=corner;whiteSpace=wrap;html=1;dx=30;dy=30;" vertex="1" parent="39">
                    <mxGeometry y="80" width="330" height="60" as="geometry"/>
                </mxCell>
                <mxCell id="64" value="zolang dat 5 ml wordt toegoevoegd" style="text;html=1;resizable=0;autosize=1;align=center;verticalAlign=middle;points=[];fillColor=none;strokeColor=none;rounded=0;" vertex="1" parent="39">
                    <mxGeometry y="90" width="200" height="20" as="geometry"/>
                </mxCell>
                <mxCell id="65" value="" style="rounded=0;whiteSpace=wrap;html=1;fontSize=11;" vertex="1" parent="39">
                    <mxGeometry x="30" y="110" width="300" height="30" as="geometry"/>
                </mxCell>
                <mxCell id="60" value="Stop" style="text;html=1;resizable=0;autosize=1;align=center;verticalAlign=middle;points=[];fillColor=none;strokeColor=none;rounded=0;fontSize=11;" vertex="1" parent="39">
                    <mxGeometry x="148.5" y="110" width="40" height="20" as="geometry"/>
                </mxCell>
                <mxCell id="55" value="" style="shape=corner;whiteSpace=wrap;html=1;dx=30;dy=30;" vertex="1" parent="39">
                    <mxGeometry y="230" width="330" height="60" as="geometry"/>
                </mxCell>
                <mxCell id="66" value="zolang dat 300 ml water wordt toegevoegd" style="text;html=1;resizable=0;autosize=1;align=center;verticalAlign=middle;points=[];fillColor=none;strokeColor=none;rounded=0;" vertex="1" parent="39">
                    <mxGeometry y="240" width="240" height="20" as="geometry"/>
                </mxCell>
                <mxCell id="38" value="Stop" style="rounded=0;whiteSpace=wrap;html=1;" vertex="1" parent="39">
                    <mxGeometry x="30" y="260" width="300" height="30" as="geometry"/>
                </mxCell>
                <mxCell id="45" value="als de buren melk hebben" style="text;html=1;resizable=0;autosize=1;align=center;verticalAlign=middle;points=[];fillColor=none;strokeColor=none;rounded=0;fontSize=11;opacity=80;" vertex="1" parent="61">
                    <mxGeometry x="95" y="60" width="140" height="20" as="geometry"/>
                </mxCell>
                <mxCell id="57" value="Roer de drank 5 seconden" style="rounded=0;whiteSpace=wrap;html=1;fontSize=11;" vertex="1" parent="61">
                    <mxGeometry y="340" width="330" height="30" as="geometry"/>
                </mxCell>
                <mxCell id="68" value="Drank klaar" style="rounded=0;whiteSpace=wrap;html=1;fontSize=11;" vertex="1" parent="1">
                    <mxGeometry x="140" y="535" width="330" height="30" as="geometry"/>
                </mxCell>
            </root>
        </mxGraphModel>
    </diagram>
</mxfile>